# mesh generated
o generated

v -0.5 0.5 -0.5
v -0.5 0.5 0.5
v 0.5 0.5 0.5
v 0.5 0.5 -0.5
v -0.5 0.4375 -0.5
v -0.5 0.4375 0.5
v 0.5 0.4375 0.5
v 0.5 0.4375 -0.5
v -0.5 0.375 -0.5
v -0.5 0.375 0.5
v 0.5 0.375 0.5
v 0.5 0.375 -0.5
v -0.5 0.3125 -0.5
v -0.5 0.3125 0.5
v 0.5 0.3125 0.5
v 0.5 0.3125 -0.5
v -0.5 0.25 -0.5
v -0.5 0.25 0.5
v 0.5 0.25 0.5
v 0.5 0.25 -0.5
v -0.5 0.1875 -0.5
v -0.5 0.1875 0.5
v 0.5 0.1875 0.5
v 0.5 0.1875 -0.5
v -0.5 0.125 -0.5
v -0.5 0.125 0.5
v 0.5 0.125 0.5
v 0.5 0.125 -0.5
v -0.5 0.0625 -0.5
v -0.5 0.0625 0.5
v 0.5 0.0625 0.5
v 0.5 0.0625 -0.5
v -0.5 0.0 -0.5
v -0.5 0.0 0.5
v 0.5 0.0 0.5
v 0.5 0.0 -0.5
v -0.5 -0.0625 -0.5
v -0.5 -0.0625 0.5
v 0.5 -0.0625 0.5
v 0.5 -0.0625 -0.5
v -0.5 -0.125 -0.5
v -0.5 -0.125 0.5
v 0.5 -0.125 0.5
v 0.5 -0.125 -0.5
v -0.5 -0.1875 -0.5
v -0.5 -0.1875 0.5
v 0.5 -0.1875 0.5
v 0.5 -0.1875 -0.5
v -0.5 -0.25 -0.5
v -0.5 -0.25 0.5
v 0.5 -0.25 0.5
v 0.5 -0.25 -0.5
v -0.5 -0.3125 -0.5
v -0.5 -0.3125 0.5
v 0.5 -0.3125 0.5
v 0.5 -0.3125 -0.5
v -0.5 -0.375 -0.5
v -0.5 -0.375 0.5
v 0.5 -0.375 0.5
v 0.5 -0.375 -0.5
v -0.5 -0.4375 -0.5
v -0.5 -0.4375 0.5
v 0.5 -0.4375 0.5
v 0.5 -0.4375 -0.5
v -0.5 -0.5 -0.5
v -0.5 -0.5 0.5
v 0.5 -0.5 0.5
v 0.5 -0.5 -0.5

vt 0.0 0.0
vt 0.25 0.0
vt 0.5 0.0
vt 0.75 0.0
vt 1.0 0.0
vt 0.0 0.25
vt 0.25 0.25
vt 0.5 0.25
vt 0.75 0.25
vt 1.0 0.25
vt 0.0 0.5
vt 0.25 0.5
vt 0.5 0.5
vt 0.75 0.5
vt 1.0 0.5
vt 0.0 0.75
vt 0.25 0.75
vt 0.5 0.75
vt 0.75 0.75
vt 1.0 0.75
vt 0.0 1.0
vt 0.25 1.0
vt 0.5 1.0
vt 0.75 1.0
vt 1.0 1.0

vn 0 1 0
vn 0 -1 0
vn 1 0 0
vn -1 0 0
vn 0 0 1
vn 0 0 -1

g generated
usemtl yp
s 0
f 1/21/1 2/16/1 3/17/1 4/22/1
usemtl yp
s 1
f 5/22/1 6/17/1 7/18/1 8/23/1
usemtl yp
s 2
f 9/23/1 10/18/1 11/19/1 12/24/1
usemtl yp
s 3
f 13/24/1 14/19/1 15/20/1 16/25/1
usemtl yp
s 4
f 17/16/1 18/11/1 19/12/1 20/17/1
usemtl yp
s 5
f 21/17/1 22/12/1 23/13/1 24/18/1
usemtl yp
s 6
f 25/18/1 26/13/1 27/14/1 28/19/1
usemtl yp
s 7
f 29/19/1 30/14/1 31/15/1 32/20/1
usemtl yp
s 8
f 33/11/1 34/6/1 35/7/1 36/12/1
usemtl yp
s 9
f 37/12/1 38/7/1 39/8/1 40/13/1
usemtl yp
s 10
f 41/13/1 42/8/1 43/9/1 44/14/1
usemtl yp
s 11
f 45/14/1 46/9/1 47/10/1 48/15/1
usemtl yp
s 12
f 49/6/1 50/1/1 51/2/1 52/7/1
usemtl yp
s 13
f 53/7/1 54/2/1 55/3/1 56/8/1
usemtl yp
s 14
f 57/8/1 58/3/1 59/4/1 60/9/1
usemtl yp
s 15
f 61/9/1 62/4/1 63/5/1 64/10/1


