# mesh generated
o generated

v -0.5 0.5 -0.5
v -0.5 0.5 0.5
v 0.5 0.5 0.5
v 0.5 0.5 -0.5
v -0.5 0.4375 -0.5
v -0.5 0.4375 0.5
v 0.5 0.4375 0.5
v 0.5 0.4375 -0.5
v -0.5 0.375 -0.5
v -0.5 0.375 0.5
v 0.5 0.375 0.5
v 0.5 0.375 -0.5
v -0.5 0.3125 -0.5
v -0.5 0.3125 0.5
v 0.5 0.3125 0.5
v 0.5 0.3125 -0.5
v -0.5 0.25 -0.5
v -0.5 0.25 0.5
v 0.5 0.25 0.5
v 0.5 0.25 -0.5
v -0.5 0.1875 -0.5
v -0.5 0.1875 0.5
v 0.5 0.1875 0.5
v 0.5 0.1875 -0.5
v -0.5 0.125 -0.5
v -0.5 0.125 0.5
v 0.5 0.125 0.5
v 0.5 0.125 -0.5
v -0.5 0.0625 -0.5
v -0.5 0.0625 0.5
v 0.5 0.0625 0.5
v 0.5 0.0625 -0.5
v -0.5 0.0 -0.5
v -0.5 0.0 0.5
v 0.5 0.0 0.5
v 0.5 0.0 -0.5
v -0.5 -0.0625 -0.5
v -0.5 -0.0625 0.5
v 0.5 -0.0625 0.5
v 0.5 -0.0625 -0.5
v -0.5 -0.125 -0.5
v -0.5 -0.125 0.5
v 0.5 -0.125 0.5
v 0.5 -0.125 -0.5
v -0.5 -0.1875 -0.5
v -0.5 -0.1875 0.5
v 0.5 -0.1875 0.5
v 0.5 -0.1875 -0.5
v -0.5 -0.25 -0.5
v -0.5 -0.25 0.5
v 0.5 -0.25 0.5
v 0.5 -0.25 -0.5
v -0.5 -0.3125 -0.5
v -0.5 -0.3125 0.5
v 0.5 -0.3125 0.5
v 0.5 -0.3125 -0.5
v -0.5 -0.375 -0.5
v -0.5 -0.375 0.5
v 0.5 -0.375 0.5
v 0.5 -0.375 -0.5
v -0.5 -0.4375 -0.5
v -0.5 -0.4375 0.5
v 0.5 -0.4375 0.5
v 0.5 -0.4375 -0.5
v -0.5 -0.5 -0.5
v -0.5 -0.5 0.5
v 0.5 -0.5 0.5
v 0.5 -0.5 -0.5

vt 0.0 0.0
vt 0.25 0.0
vt 0.5 0.0
vt 0.75 0.0
vt 1.0 0.0
vt 0.0 0.25
vt 0.25 0.25
vt 0.5 0.25
vt 0.75 0.25
vt 1.0 0.25
vt 0.0 0.5
vt 0.25 0.5
vt 0.5 0.5
vt 0.75 0.5
vt 1.0 0.5
vt 0.0 0.75
vt 0.25 0.75
vt 0.5 0.75
vt 0.75 0.75
vt 1.0 0.75
vt 0.0 1.0
vt 0.25 1.0
vt 0.5 1.0
vt 0.75 1.0
vt 1.0 1.0

vn 0 1 0
vn 0 -1 0
vn 1 0 0
vn -1 0 0
vn 0 0 1
vn 0 0 -1

g generated
usemtl yn
s 0
f 8/22/2 7/17/2 6/16/2 5/21/2
s 1
f 12/23/2 11/18/2 10/17/2 9/22/2
s 2
f 16/24/2 15/19/2 14/18/2 13/23/2
s 3
f 20/25/2 19/20/2 18/19/2 17/24/2
s 4
f 24/17/2 23/12/2 22/11/2 21/16/2
s 5
f 28/18/2 27/13/2 26/12/2 25/17/2
s 6
f 32/19/2 31/14/2 30/13/2 29/18/2
s 7
f 36/20/2 35/15/2 34/14/2 33/19/2
s 8
f 40/12/2 39/7/2 38/6/2 37/11/2
s 9
f 44/13/2 43/8/2 42/7/2 41/12/2
s 10
f 48/14/2 47/9/2 46/8/2 45/13/2
s 11
f 52/15/2 51/10/2 50/9/2 49/14/2
s 12
f 56/7/2 55/2/2 54/1/2 53/6/2
s 13
f 60/8/2 59/3/2 58/2/2 57/7/2
s 14
f 64/9/2 63/4/2 62/3/2 61/8/2
s 15
f 68/10/2 67/5/2 66/4/2 65/9/2


